<svg id="Слой_1" data-name="Слой 1" xmlns="http://www.w3.org/2000/svg" viewBox="0 0 274 142.09"><defs><style>.cls-1{fill:#7776bc;}.cls-2{fill:#ffec51;}</style></defs><title>logoPlusKkarme</title><path class="cls-1" d="M14,95.52H24V109.1L37.28,95.52H49.74l-16.07,15.6,16.89,19.4H37.77L25.48,116.06,24,117.51v13H14Z" transform="translate(-14 -7.44)"/><path class="cls-1" d="M73,95.52H83V109.1L96.28,95.52h12.46l-16.07,15.6,16.89,19.4H96.77L84.48,116.06,83,117.51v13H73Z" transform="translate(-14 -7.44)"/><path class="cls-1" d="M140,100.05V95.52h10v35H140V126a12.69,12.69,0,0,1-10.9,5.66A17.07,17.07,0,0,1,116,126.24a20.13,20.13,0,0,1-.12-26.51,16.49,16.49,0,0,1,12.71-5.34Q136.31,94.39,140,100.05Zm-1.7,6.09a10,10,0,0,0-13.89,0,9.7,9.7,0,0,0-2.74,7,9.8,9.8,0,0,0,2.74,7.06,9.84,9.84,0,0,0,13.89,0,9.81,9.81,0,0,0,2.75-7.06A9.71,9.71,0,0,0,138.3,106.14Z" transform="translate(-14 -7.44)"/><path class="cls-1" d="M169,126.14v23.38H159v-54h10v4.55a13.4,13.4,0,0,1,11.56-5.68,16.32,16.32,0,0,1,12.62,5.28A19.07,19.07,0,0,1,198,113.06a18.94,18.94,0,0,1-5,13.44,16.65,16.65,0,0,1-12.75,5.32A13.31,13.31,0,0,1,169,126.14Zm15.8-20a9.95,9.95,0,0,0-13.88,0,9.67,9.67,0,0,0-2.75,7,9.77,9.77,0,0,0,2.75,7.06,9.83,9.83,0,0,0,13.88,0,9.81,9.81,0,0,0,2.75-7.06A9.71,9.71,0,0,0,184.8,106.14Z" transform="translate(-14 -7.44)"/><path class="cls-1" d="M201.55,130.52l6.39-36h7.28l9.63,21.12,9.62-21.12h7.28l6.4,36h-9.9l-2.91-18.81-9,19.81h-2.91l-9-19.81-2.91,18.81Z" transform="translate(-14 -7.44)"/><path class="cls-1" d="M278.72,119.13l9,1.45a15.78,15.78,0,0,1-1.5,2.87,27.11,27.11,0,0,1-2.86,3.47,13.8,13.8,0,0,1-5.25,3.31,21.49,21.49,0,0,1-7.59,1.25q-8.24,0-13.4-4.93-5.49-5.16-5.49-13.64A18.57,18.57,0,0,1,257,99.19q5-4.93,13.16-4.93,8.88,0,13.64,5.73,4.2,5,4.2,13.73v.8H261.84a9.81,9.81,0,0,0,1.7,5.9,8.14,8.14,0,0,0,7,3.31A8.82,8.82,0,0,0,278.72,119.13Zm-16.25-10.61H279a7.87,7.87,0,0,0-2.95-5.2,8.65,8.65,0,0,0-5.37-1.82,8.39,8.39,0,0,0-5.29,1.86A8,8,0,0,0,262.47,108.52Z" transform="translate(-14 -7.44)"/><path class="cls-1" d="M24,76.57v23H14v-53H24V51q4.09-5.58,11.56-5.58a16.47,16.47,0,0,1,12.62,5.18A18.53,18.53,0,0,1,53,63.74a18.42,18.42,0,0,1-5,13.19,16.82,16.82,0,0,1-12.75,5.22A13.4,13.4,0,0,1,24,76.57ZM39.1,56.64a9.11,9.11,0,0,0-6.83-2.79,9.11,9.11,0,0,0-6.84,2.79,9.49,9.49,0,0,0-2.71,6.91,9.64,9.64,0,0,0,2.71,7,9.06,9.06,0,0,0,6.84,2.82,9.06,9.06,0,0,0,6.83-2.82,9.64,9.64,0,0,0,2.71-7A9.49,9.49,0,0,0,39.1,56.64Z" transform="translate(-14 -7.44)"/><path class="cls-1" d="M59,7.44H69V81.52H59Z" transform="translate(-14 -7.44)"/><path class="cls-2" d="M82.5,46.52h1A4.5,4.5,0,0,1,88,51V66c0,2.75.69,4.77,2.07,6a7.82,7.82,0,0,0,9.86,0c1.38-1.27,2.07-3.29,2.07-6V51a4.5,4.5,0,0,1,4.5-4.5h0A4.5,4.5,0,0,1,111,51V67.6q0,6.91-4.16,10.57-4.41,3.9-12.34,3.9t-12.34-3.9Q78,74.52,78,67.6V51A4.5,4.5,0,0,1,82.5,46.52Z" transform="translate(-14 -7.44)"/><path class="cls-2" d="M141.67,52.14h0a3.52,3.52,0,0,1-4.21.92,7.81,7.81,0,0,0-3.49-.8,4.38,4.38,0,0,0-2.74.76,2.39,2.39,0,0,0-1,2c0,1.38,1,2.42,3.1,3.11l2.31.71q6.77,2.14,8.75,4.93a9.46,9.46,0,0,1,1.75,5.73,11.37,11.37,0,0,1-3.82,8.74A14.67,14.67,0,0,1,132,81.92a17.65,17.65,0,0,1-10.45-3.16,3.56,3.56,0,0,1-.61-5.22l.47-.55a3.49,3.49,0,0,1,4.69-.47,8.84,8.84,0,0,0,5.27,1.77,5.61,5.61,0,0,0,3.42-1,3.2,3.2,0,0,0,1.35-2.74q0-2.39-3-3.5l-2.23-.79c-3.45-1.22-5.91-2.6-7.4-4.14a9.27,9.27,0,0,1-2.62-6.6,9.71,9.71,0,0,1,3.58-7.79c2.07-1.64,5.06-2.47,9-2.47a18.05,18.05,0,0,1,7,1.35A3.53,3.53,0,0,1,141.67,52.14Z" transform="translate(-14 -7.44)"/></svg>